PathFileType	4	(X/Y/Z)	s11c0102.trc
DataRate	CameraRate	NumFrames	NumMarkers	Units	OrigDataRate	OrigDataStartFrame	OrigNumFrames
200	200	4	48	mm	200	1750	2000
Frame#	Time	racr			lacr			c7			jug			rlel			rdr			llel			ldr			s2			lic			ric			lasi			rasi			rpsi			lpsi			rgt			lgt			rth1			rth2			rth3			rth4			rlfc			rmfc			rsh1			rsh2			rsh3			rsh4			rlmal			rcal			rtoe			rmt5			lth1			lth2			lth4			lth3			llfc			lmfc			llmal			lcal			lmt5			lsh1			lsh2			lsh3			lsh4			ltoe			SBIKE			LBIKE			RBIKE			
		X1	Y1	Z1	X2	Y2	Z2	X3	Y3	Z3	X4	Y4	Z4	X5	Y5	Z5	X6	Y6	Z6	X7	Y7	Z7	X8	Y8	Z8	X9	Y9	Z9	X10	Y10	Z10	X11	Y11	Z11	X12	Y12	Z12	X13	Y13	Z13	X14	Y14	Z14	X15	Y15	Z15	X16	Y16	Z16	X17	Y17	Z17	X18	Y18	Z18	X19	Y19	Z19	X20	Y20	Z20	X21	Y21	Z21	X22	Y22	Z22	X23	Y23	Z23	X24	Y24	Z24	X25	Y25	Z25	X26	Y26	Z26	X27	Y27	Z27	X28	Y28	Z28	X29	Y29	Z29	X30	Y30	Z30	X31	Y31	Z31	X32	Y32	Z32	X33	Y33	Z33	X34	Y34	Z34	X35	Y35	Z35	X36	Y36	Z36	X37	Y37	Z37	X38	Y38	Z38	X39	Y39	Z39	X40	Y40	Z40	X41	Y41	Z41	X42	Y42	Z42	X43	Y43	Z43	X44	Y44	Z44	X45	Y45	Z45	X46	Y46	Z46	X47	Y47	Z47	X48	Y48	Z48	
1750	8.7500	481.331461	1417.567311	-112.446316	472.652924	1436.909697	-435.548190	379.814021	1541.634984	-275.736690	440.102050	1370.214052	-280.978424	596.151668	1163.166675	-53.032131	781.932317	924.589240	-96.710099	565.318286	1145.063074	-497.665846	782.804400	914.407263	-448.161997	-119.876354	1190.555095	-260.399661	100.616997	1205.826280	-464.372479	107.542146	1211.331036	-71.261246	137.908280	1132.709817	-432.257741	137.569657	1145.863685	-103.293364	-77.117432	1264.808946	-210.535924	-81.924729	1254.219327	-307.339442	53.314851	1071.607371	-38.327420	14.666159	1067.263284	-472.980306	178.685648	998.349763	-24.706944	261.366443	972.689569	-25.405957	325.059728	912.464688	-33.434321	278.496856	1004.393455	-35.914254	414.960051	846.992696	-43.608511	429.319231	834.293541	-173.865039	312.412004	729.314531	-44.349620	267.117517	658.481763	-70.667103	190.780333	616.203995	-78.514800	287.309796	645.044763	-101.679288	86.172782	543.725767	-101.617771	27.797001	573.347701	-151.328837	215.299863	355.800764	-147.637063	146.676841	383.706548	-77.812188	122.668026	961.299456	-497.805623	198.522486	921.270767	-497.995703	224.607041	947.294537	-492.600698	245.851151	844.759182	-492.191924	342.730041	745.657169	-471.974869	369.745828	744.711469	-347.300269	249.666697	329.250578	-423.766952	198.336239	285.633331	-383.714966	399.643830	241.228267	-456.460948	307.772041	623.211135	-483.314288	318.277172	539.538262	-465.936629	284.867115	458.599346	-453.874714	351.435723	538.663424	-446.493637	496.126084	268.985021	-391.123174	-215.980870	954.443773	-257.644088	-17.786854	80.845470	-460.991908	-17.817959	80.803281	-62.033519	
1751	8.7550	481.393460	1417.538711	-112.181011	472.920316	1436.923156	-435.367137	379.946019	1541.645938	-275.573871	440.273404	1370.220476	-280.750532	596.125928	1163.072195	-52.997034	781.882641	924.525915	-96.890956	565.339696	1145.002755	-497.532647	782.883185	914.297052	-448.070896	-119.787294	1190.574384	-260.571087	100.798419	1205.615914	-464.417850	107.534894	1211.542259	-71.249437	138.147665	1132.599613	-432.319469	137.293319	1146.071344	-103.391696	-77.101733	1264.889294	-210.769745	-81.794625	1254.214338	-307.575806	53.592618	1072.733405	-38.070100	14.528612	1066.712547	-472.933357	179.334824	1000.546988	-24.494619	262.429705	975.883160	-25.185689	326.544746	916.307542	-32.585567	279.218423	1007.670508	-35.806780	417.469670	851.681096	-43.113769	431.922059	838.883918	-173.490738	314.984968	733.889942	-44.099290	269.077961	662.996512	-70.811098	193.189279	621.050503	-78.442883	289.853932	649.569577	-101.583726	88.611988	548.409897	-101.621347	30.250101	577.888645	-151.624415	218.184420	360.873724	-147.708168	149.476066	388.635387	-77.879304	121.496143	959.708484	-497.435359	196.830721	918.741300	-497.423990	223.204466	944.472482	-492.059484	243.204441	841.742378	-491.336885	339.011185	741.716852	-470.962221	366.258177	741.199917	-346.323949	247.002321	324.856203	-423.498941	195.741287	281.443092	-383.549497	396.916787	236.414979	-456.364690	304.125110	619.227825	-482.583833	314.886032	535.534275	-465.322505	281.683961	454.468111	-453.507485	348.063923	534.727527	-445.955330	493.498033	263.779021	-391.047567	-215.978738	954.431827	-257.604885	-17.781495	80.828027	-460.994634	-17.812013	80.810405	-62.027400	
1752	8.7600	481.436833	1417.524522	-111.947986	473.184028	1436.979598	-435.182204	380.108273	1541.655610	-275.393704	440.421538	1370.201503	-280.558726	596.087259	1162.989859	-52.945329	781.845835	924.472895	-97.057605	565.345433	1144.934606	-497.404634	782.941694	914.225352	-447.997446	-119.718377	1190.608484	-260.731191	101.021541	1205.472839	-464.592257	107.551402	1211.698302	-71.066839	138.366772	1132.432423	-432.340902	137.025537	1146.287931	-103.485170	-77.073600	1265.007845	-211.039283	-81.657532	1254.206477	-307.795957	53.849295	1073.782169	-37.847199	14.334129	1066.248529	-472.700656	179.961593	1002.771730	-24.285061	263.509936	979.033276	-24.970723	328.209383	920.288916	-32.192459	279.955714	1011.070291	-35.702810	419.922844	856.415602	-42.646409	434.297523	843.621776	-173.231535	317.491876	738.527811	-43.878328	271.600966	667.702943	-70.721945	195.733531	625.722824	-78.368550	292.413217	654.292586	-101.415388	91.177646	553.156917	-101.652705	32.903956	582.081139	-151.954529	221.277518	365.910617	-147.760688	152.480659	393.557743	-77.932978	120.273162	958.226777	-497.078692	195.276502	916.352350	-496.985982	221.795858	941.789072	-491.491235	240.525048	838.764333	-490.481266	335.241898	737.873994	-469.936032	362.356345	737.146049	-345.266518	244.281147	320.544600	-423.177244	192.962336	277.288865	-383.529778	394.001051	231.644033	-456.320605	300.466565	615.314606	-481.915545	311.399941	531.567523	-464.793573	278.401839	450.447523	-453.159932	344.586437	530.821932	-445.409165	490.660731	258.707854	-390.961297	-215.982720	954.439242	-257.596346	-17.782749	80.841288	-460.974867	-17.757316	80.837689	-62.145544	
1753	8.7650	481.478297	1417.497025	-111.715988	473.466783	1437.005140	-434.932863	380.301329	1541.658678	-275.216870	440.554528	1370.153647	-280.353451	596.045537	1162.902449	-52.878846	781.818802	924.438749	-97.168511	565.346100	1144.855256	-497.336877	782.988685	914.139341	-447.932111	-119.594531	1190.666939	-260.908173	101.159298	1205.161571	-464.520121	107.549114	1211.986169	-71.059881	138.548108	1132.284134	-432.402159	136.732069	1146.538865	-103.600438	-77.034537	1265.087581	-211.273507	-81.529991	1254.214201	-307.993011	54.042551	1074.956048	-37.660685	14.083486	1065.790612	-472.640631	180.565449	1005.023745	-24.078284	264.589779	982.340958	-24.780346	330.013530	923.991405	-32.079410	280.693255	1014.425038	-35.699986	422.361433	861.167691	-42.264001	436.808284	848.489005	-173.064930	320.119141	743.203438	-43.680669	274.260911	672.340219	-70.547713	198.440313	630.307537	-78.266559	295.340967	659.117564	-101.097818	93.819418	557.746362	-101.730736	35.462262	586.457212	-152.030557	224.504232	371.024146	-147.811200	155.654038	398.398168	-77.984130	119.053818	956.801858	-496.749714	193.515674	914.099726	-496.417909	220.312951	939.163695	-490.874715	237.842365	835.724751	-489.388576	331.482344	734.044582	-468.956447	358.347100	733.148569	-344.228891	241.357399	316.378427	-422.834203	190.097672	273.332359	-383.441834	390.892110	227.028038	-456.276708	296.773368	611.563824	-481.275379	307.865070	527.767778	-464.243199	274.982379	446.561015	-452.747770	341.016123	526.994853	-444.856061	487.630251	253.857593	-390.899823	-215.977777	954.436467	-257.569999	-17.747433	80.768885	-461.069635	-17.817121	80.822030	-62.036717	
